<svg width="50" height="50" viewBox="0 0 50 50" fill="none" xmlns="http://www.w3.org/2000/svg">
<g clip-path="url(#clip0_240_13187)">
<path d="M23.6989 25C23.6989 19.7185 20.9346 15.0852 16.7793 12.4785C6.53867 13.777 0.976562 25 0.976562 25C0.976562 25 6.53867 36.223 16.7793 37.5215C20.9346 34.9148 23.6989 30.2815 23.6989 25Z" fill="#FFD600"/>
<path d="M47.8622 23.3504C49.2408 21.8469 50 19.893 50 17.8485V16.0477C50 15.5085 49.5627 15.0712 49.0234 15.0712H45.6183C42.3754 15.0712 39.4917 17.0026 38.2119 19.9009C37.3827 19.2486 36.47 18.5643 35.4888 17.878C34.4004 17.1168 33.3282 16.4219 32.2732 15.7934L34.0421 12.8873C34.1946 12.6367 34.2265 12.3307 34.1287 12.0541C34.0309 11.7775 33.8139 11.5596 33.5377 11.4604L32.8731 11.222C28.4842 9.64755 23.7696 9.39579 19.2394 10.4936C18.4656 10.6812 17.6919 10.9106 16.9395 11.1755L15.3953 11.7193C15.3829 11.7237 15.3708 11.7283 15.3587 11.7331C11.6018 12.5288 8.01445 14.6577 4.83574 18.0058C1.76865 21.2364 0.168066 24.4319 0.101465 24.5664C-0.0339844 24.8396 -0.0339844 25.1604 0.101465 25.4337C0.168164 25.5682 1.76865 28.7637 4.83574 31.9942C8.01445 35.3423 11.6018 37.4713 15.3587 38.267C15.3708 38.2718 15.3829 38.2765 15.3953 38.2807L16.9395 38.8247C17.6918 39.0895 18.4655 39.3189 19.2393 39.5064C21.0896 39.955 22.97 40.1781 24.8473 40.1781C27.5659 40.1781 30.2769 39.7095 32.8731 38.778L33.5377 38.5396C33.8139 38.4405 34.0309 38.2225 34.1287 37.946C34.2265 37.6693 34.1947 37.3634 34.0421 37.1128L32.2732 34.2066C33.3282 33.5782 34.4003 32.8833 35.4888 32.1221C36.4701 31.4356 37.3828 30.7514 38.2121 30.0991C39.4924 32.9966 42.3784 34.9289 45.6183 34.9289H49.0234C49.5627 34.9289 50 34.4916 50 33.9523V32.1515C50 30.1071 49.2408 28.1533 47.8622 26.6497C47.2477 25.9794 46.5344 25.4244 45.7534 25C46.5344 24.5757 47.2477 24.0207 47.8622 23.3504ZM31.7484 12.8993L30.5731 14.8304C27.8951 13.393 25.3348 12.4016 22.9069 11.8621C25.8842 11.5955 28.8864 11.9441 31.7484 12.8993ZM31.7484 37.1009C28.8864 38.0559 25.8843 38.4047 22.9069 38.1381C25.3348 37.5985 27.895 36.6072 30.573 35.1698L31.7484 37.1009ZM18.7183 36.667C14.2528 36.667 10.0711 34.6554 6.28926 30.6882C4.04785 28.337 2.61523 25.9532 2.08398 24.9994C2.61064 24.0521 4.02461 21.6971 6.25234 19.3506C10.0433 15.3576 14.2375 13.333 18.7183 13.333C28.1315 13.333 38.3943 22.4085 41.1324 25C38.3943 27.5916 28.1314 36.667 18.7183 36.667ZM48.0469 32.1515V32.9758H45.6183C42.9772 32.9758 40.6459 31.2823 39.8022 28.8061C41.2688 27.5739 42.3324 26.5672 42.8604 26.0516C45.8003 26.5188 48.0469 29.1208 48.0469 32.1515ZM42.8604 23.9484C42.3324 23.4329 41.2687 22.4261 39.8021 21.1937C40.6457 18.7169 42.9748 17.0243 45.6183 17.0243H48.0469V17.8485C48.0469 20.8794 45.8003 23.4812 42.8604 23.9484Z" fill="#31688F"/>
<path d="M14.609 21.1956C14.0698 21.1956 13.6324 21.6329 13.6324 22.1721V23.7222C13.6324 24.2615 14.0698 24.6988 14.609 24.6988C15.1483 24.6988 15.5856 24.2615 15.5856 23.7222V22.1721C15.5856 21.6328 15.1483 21.1956 14.609 21.1956Z" fill="#31688F"/>
</g>
<defs>
<clipPath id="clip0_240_13187">
<rect width="50" height="50" fill="white"/>
</clipPath>
</defs>
</svg>
